<?xml version="1.0" encoding="utf-8"?>
<svg version="1.1" xmlns:xlink="http://www.w3.org/1999/xlink" width="149px" height="185px" xmlns="http://www.w3.org/2000/svg">
  <defs>
    <mask fill="white" id="clip29">
      <path d="M 0 168.566176470588  L 0 12.8676470588235  C 0 9.26470588235294  2.2 6.43382352941176  5 7  L 65.9999999999997 7  L 71.5 0.900735294117651  L 77.1999999999999 7  L 134 7  C 136.8 6.43382352941176  139 9.26470588235294  139 12.8676470588235  L 139 168.566176470588  C 139 172.169117647059  136.8 175  134 175  L 5 175  C 2.2 175  0 172.169117647059  0 168.566176470588  Z " fill-rule="evenodd" />
    </mask>
    <filter x="1293px" y="67px" width="149px" height="185px" filterUnits="userSpaceOnUse" id="filter30">
      <feOffset dx="2" dy="2" in="SourceAlpha" result="shadowOffsetInner" />
      <feGaussianBlur stdDeviation="2.5" in="shadowOffsetInner" result="shadowGaussian" />
      <feComposite in2="shadowGaussian" operator="atop" in="SourceAlpha" result="shadowComposite" />
      <feColorMatrix type="matrix" values="0 0 0 0 0.666666666666667  0 0 0 0 0.666666666666667  0 0 0 0 0.666666666666667  0 0 0 0.349019607843137 0  " in="shadowComposite" />
    </filter>
    <g id="widget31">
      <path d="M 0 168.566176470588  L 0 12.8676470588235  C 0 9.26470588235294  2.2 6.43382352941176  5 7  L 65.9999999999997 7  L 71.5 0.900735294117651  L 77.1999999999999 7  L 134 7  C 136.8 6.43382352941176  139 9.26470588235294  139 12.8676470588235  L 139 168.566176470588  C 139 172.169117647059  136.8 175  134 175  L 5 175  C 2.2 175  0 172.169117647059  0 168.566176470588  Z " fill-rule="nonzero" fill="#ffffff" stroke="none" transform="matrix(1 0 0 1 1296 70 )" />
      <path d="M 0 168.566176470588  L 0 12.8676470588235  C 0 9.26470588235294  2.2 6.43382352941176  5 7  L 65.9999999999997 7  L 71.5 0.900735294117651  L 77.1999999999999 7  L 134 7  C 136.8 6.43382352941176  139 9.26470588235294  139 12.8676470588235  L 139 168.566176470588  C 139 172.169117647059  136.8 175  134 175  L 5 175  C 2.2 175  0 172.169117647059  0 168.566176470588  Z " stroke-width="2" stroke="#f2f2f2" fill="none" transform="matrix(1 0 0 1 1296 70 )" mask="url(#clip29)" />
    </g>
  </defs>
  <g transform="matrix(1 0 0 1 -1293 -67 )">
    <use xlink:href="#widget31" filter="url(#filter30)" />
    <use xlink:href="#widget31" />
  </g>
</svg>